<svg viewBox="0 0 32 32" fill="none" xmlns="http://www.w3.org/2000/svg">
<path d="M16 4C18.9467 4 21.3333 6.38667 21.3333 9.33333C21.3333 12.28 18.9467 14.6667 16 14.6667C13.0533 14.6667 10.6667 12.28 10.6667 9.33333C10.6667 6.38667 13.0533 4 16 4ZM21.3333 18.0533C21.3333 19.4667 20.96 22.76 18.4133 26.44L17.3333 20L18.5867 17.4933C17.76 17.4 16.8933 17.3333 16 17.3333C15.1067 17.3333 14.24 17.4 13.4133 17.4933L14.6667 20L13.5867 26.44C11.04 22.76 10.6667 19.4667 10.6667 18.0533C7.48001 18.9867 5.33334 20.6667 5.33334 22.6667V28H26.6667V22.6667C26.6667 20.6667 24.5333 18.9867 21.3333 18.0533Z" />
</svg>