<svg viewBox="0 0 32 32" fill="none" xmlns="http://www.w3.org/2000/svg">
<path d="M9.33337 25.3333V22.6667H12V25.3333H9.33337ZM14.6667 25.3333V22.6667H17.3334V25.3333H14.6667ZM20 25.3333V22.6667H22.6667V25.3333H20ZM9.33337 20V17.3333H12V20H9.33337ZM14.6667 20V17.3333H17.3334V20H14.6667ZM20 20V17.3333H22.6667V20H20ZM9.33337 14.6667V12H12V14.6667H9.33337ZM14.6667 14.6667V12H17.3334V14.6667H14.6667ZM20 14.6667V12H22.6667V14.6667H20ZM9.33337 9.33333V6.66667H12V9.33333H9.33337ZM14.6667 9.33333V6.66667H17.3334V9.33333H14.6667ZM20 9.33333V6.66667H22.6667V9.33333H20Z"/>
</svg>
