<svg  viewBox="0 0 24 24" fill="none" xmlns="http://www.w3.org/2000/svg">
<path d="M0 8C0 3.58172 3.58172 0 8 0H24V16C24 20.4183 20.4183 24 16 24H0V8Z" fill="#383838"/>
<path d="M7.21778 10.9244C8.49778 13.44 10.56 15.5022 13.0756 16.7822L15.0311 14.8267C15.28 14.5778 15.6267 14.5067 15.9378 14.6044C16.9333 14.9333 18 15.1111 19.1111 15.1111C19.3469 15.1111 19.573 15.2048 19.7397 15.3715C19.9064 15.5382 20 15.7643 20 16V19.1111C20 19.3469 19.9064 19.573 19.7397 19.7397C19.573 19.9064 19.3469 20 19.1111 20C15.1034 20 11.2598 18.4079 8.42594 15.5741C5.59206 12.7402 4 8.8966 4 4.88889C4 4.65314 4.09365 4.42705 4.26035 4.26035C4.42705 4.09365 4.65314 4 4.88889 4H8C8.23575 4 8.46184 4.09365 8.62854 4.26035C8.79524 4.42705 8.88889 4.65314 8.88889 4.88889C8.88889 6 9.06667 7.06667 9.39556 8.06222C9.49333 8.37333 9.42222 8.72 9.17333 8.96889L7.21778 10.9244Z" fill="white"/>
</svg>
