<svg viewBox="0 0 32 32" fill="none" xmlns="http://www.w3.org/2000/svg">
<path d="M20 8H4V10.6667H20V8ZM20 13.3333H4V16H20V13.3333ZM4 21.3333H14.6667V18.6667H4V21.3333ZM22.6667 8V18.9067C22.2533 18.76 21.8 18.6667 21.3333 18.6667C20.2725 18.6667 19.2551 19.0881 18.5049 19.8382C17.7548 20.5884 17.3333 21.6058 17.3333 22.6667C17.3333 23.7275 17.7548 24.7449 18.5049 25.4951C19.2551 26.2452 20.2725 26.6667 21.3333 26.6667C22.3942 26.6667 23.4116 26.2452 24.1618 25.4951C24.9119 24.7449 25.3333 23.7275 25.3333 22.6667V10.6667H29.3333V8H22.6667Z" />
</svg>
